<svg width="86" height="23" viewBox="0 0 86 23" fill="none" xmlns="http://www.w3.org/2000/svg">
<mask id="mask0_108_37" style="mask-type:luminance" maskUnits="userSpaceOnUse" x="0" y="0" width="86" height="23">
<path d="M85.2267 0H0.341064V23H85.2267V0Z" fill="white"/>
</mask>
<g mask="url(#mask0_108_37)">
<path d="M5.48187 0.0282299V1.21807C5.27345 1.19333 5.06383 1.18145 4.85411 1.18252C2.63465 1.18252 1.46216 2.75712 1.46216 5.73589V8.76068H3.51848V9.87628H1.4582V22.9321H0.341064V5.60102C0.341064 3.68557 0.810657 2.17579 1.69843 1.23585C2.47352 0.41822 3.53331 0 4.85014 0C5.07951 0 5.28415 0.00940996 5.48187 0.0282299Z" fill="#282828"/>
<path d="M59.2578 0.0741882H58.1407V22.9843H59.2578V0.0741882Z" fill="#282828"/>
<path d="M67.9218 3.08042C67.777 2.88985 67.6694 2.67072 67.6055 2.43579C67.5414 2.20086 67.5222 1.95481 67.5489 1.71196C67.5756 1.4691 67.6477 1.2343 67.761 1.02119C67.8744 0.808073 68.0266 0.62091 68.2089 0.470582C68.3912 0.320256 68.6 0.209764 68.823 0.145533C69.0461 0.0813033 69.279 0.0646168 69.5082 0.0964441C69.7374 0.128271 69.9583 0.207977 70.1582 0.330927C70.3579 0.453877 70.5327 0.617616 70.6721 0.81262L75.6152 7.50415C75.6528 7.55538 75.6953 7.60871 75.7369 7.65576C75.1315 7.76025 74.5607 8.02405 74.0769 8.4229C73.5932 8.82173 73.2121 9.34282 72.9687 9.9382C72.9373 9.88046 72.9019 9.82525 72.8629 9.773L67.9218 3.08042Z" fill="#282828"/>
<path d="M84.8552 20.0108C85.0008 20.201 85.109 20.42 85.1737 20.6549C85.2385 20.8899 85.2583 21.136 85.2321 21.3792C85.206 21.6223 85.1342 21.8576 85.0213 22.0711C84.9083 22.2846 84.7563 22.4724 84.5741 22.6231C84.3919 22.7739 84.1832 22.8849 83.96 22.9495C83.7368 23.0142 83.5038 23.0312 83.2743 22.9995C83.0448 22.968 82.8236 22.8885 82.6235 22.7656C82.4234 22.6426 82.2486 22.4789 82.1089 22.2838L77.1659 15.5922C77.0847 15.4803 76.9899 15.3801 76.884 15.2943C77.5035 15.194 78.0882 14.9271 78.5821 14.5193C79.076 14.1113 79.4625 13.5761 79.7046 12.9648C79.7604 13.0903 79.8295 13.2089 79.9101 13.3182L84.8552 20.0108Z" fill="#282828"/>
<path d="M75.8636 15.3196C75.7729 15.3994 75.6907 15.4894 75.6185 15.5882L70.6754 22.2798C70.3903 22.6654 69.9721 22.9156 69.5127 22.9753C69.0533 23.0349 68.5903 22.8991 68.2256 22.5976C67.8608 22.2963 67.6243 21.8539 67.5679 21.368C67.5116 20.8822 67.64 20.3925 67.925 20.0068L72.8681 13.3152C72.9165 13.2488 72.9604 13.179 72.9996 13.1061C73.2606 13.7015 73.6609 14.2166 74.1625 14.6028C74.6642 14.9889 75.2508 15.2335 75.8666 15.3132" fill="#282828"/>
<path d="M77.0043 7.69102C77.0617 7.63399 77.1149 7.57248 77.1636 7.507L82.1066 0.815474C82.2475 0.624827 82.4225 0.46539 82.6216 0.346266C82.8207 0.227143 83.0401 0.150664 83.2672 0.121198C83.4942 0.0917312 83.7246 0.109854 83.945 0.174532C84.1655 0.239208 84.3717 0.349174 84.552 0.498148C84.7322 0.647124 84.883 0.832189 84.9957 1.04278C85.1083 1.25337 85.1806 1.48537 85.2085 1.72551C85.2363 1.96566 85.2192 2.20926 85.158 2.44241C85.0969 2.67555 84.9929 2.89368 84.8521 3.08432L79.9089 9.77584C79.8371 9.87325 79.7751 9.97839 79.7241 10.0895C79.4995 9.47916 79.132 8.93912 78.6562 8.51998C78.1803 8.10083 77.6117 7.81632 77.0034 7.69311" fill="#282828"/>
<path d="M78.6889 11.5459C78.6891 12.0269 78.5544 12.4972 78.3018 12.8972C78.0493 13.2973 77.6902 13.6093 77.27 13.7934C76.8499 13.9777 76.3874 14.0259 75.9413 13.9323C75.4952 13.8386 75.0854 13.607 74.7636 13.2669C74.442 12.9269 74.2229 12.4935 74.1341 12.0218C74.0453 11.55 74.0908 11.0609 74.2647 10.6165C74.4388 10.172 74.7335 9.79216 75.1117 9.52488C75.4899 9.25762 75.9345 9.11496 76.3894 9.11496C76.9991 9.11496 77.5838 9.37104 78.015 9.82688C78.4462 10.2827 78.6886 10.9011 78.6889 11.5459Z" fill="#FF8500"/>
<path d="M13.2742 8.67084C9.44038 8.67084 6.55164 11.751 6.55164 15.836V15.8882C6.55164 19.943 9.44235 22.998 13.2742 22.998C17.1061 22.998 19.9968 19.9188 19.9968 15.8339V15.7879C19.9968 11.7332 17.1052 8.67816 13.2742 8.67816V8.67084ZM18.9272 15.8099V15.8622C18.9272 19.3124 16.508 21.9169 13.301 21.9169C10.1186 21.9169 7.62528 19.257 7.62528 15.8622V15.8099C7.62528 12.3596 10.0434 9.75507 13.2505 9.75507C16.4339 9.75507 18.9272 12.415 18.9272 15.8099Z" fill="#282828"/>
<path d="M51.7147 10.2255C50.7528 9.20814 49.347 8.69269 47.5369 8.69269C46.0213 8.69269 44.6392 9.05967 43.0555 9.88252L42.829 10.0007L43.2424 10.9835L43.4865 10.8591C44.9556 10.1115 46.1973 9.77796 47.5121 9.77796C50.4237 9.77796 51.9609 11.3055 51.9609 14.1954V14.9138C50.5271 14.446 49.0353 14.2073 47.5349 14.2059C43.9966 14.2059 41.709 15.9625 41.709 18.6788V18.7321C41.709 21.6429 44.2636 22.9676 46.6372 22.9676C49.2739 22.9676 51.086 21.6596 51.9609 20.3684V23.0021H53.0118V14.1682C53.0118 12.4881 52.563 11.1246 51.7128 10.2255H51.7147ZM51.9609 16.0513V17.5454C51.9609 19.6312 49.9353 21.8823 46.662 21.8823C44.8735 21.8823 42.7856 21.0511 42.7856 18.7059V18.6526C42.7856 16.1746 45.2522 15.2922 47.5605 15.2922C49.2017 15.2922 50.6016 15.5337 51.9609 16.0513Z" fill="#282828"/>
<path d="M31.718 9.77595C32.8846 9.76301 34.0241 10.148 34.9676 10.8738L34.9854 10.8874H36.585L36.4653 10.7692C35.5944 9.87947 34.1559 8.69485 31.7417 8.69485C28.0947 8.69485 25.1259 11.8922 25.1259 15.8213V15.8715C25.1259 19.8039 28.0838 23.0021 31.718 23.0021C33.5558 23.0021 35.108 22.3142 36.4634 20.8985L36.5791 20.7772H34.9893L34.9716 20.7909C34.042 21.5328 32.9062 21.9285 31.7417 21.9159C28.6869 21.9159 26.2055 19.1975 26.2055 15.8465V15.7963C26.2055 12.4213 28.6286 9.77805 31.7219 9.77805" fill="#282828"/>
</g>
</svg>
